<svg width="14" height="14" viewBox="0 0 14 14" fill="none" xmlns="http://www.w3.org/2000/svg">
<path fill-rule="evenodd" clip-rule="evenodd" d="M6.99999 1.66659C5.71133 1.66659 4.66666 2.71125 4.66666 3.99992C4.66666 5.28858 5.71133 6.33325 6.99999 6.33325C8.28866 6.33325 9.33333 5.28858 9.33333 3.99992C9.33333 2.71125 8.28866 1.66659 6.99999 1.66659ZM3.33333 3.99992C3.33333 1.97487 4.97495 0.333252 6.99999 0.333252C9.02504 0.333252 10.6667 1.97487 10.6667 3.99992C10.6667 6.02496 9.02504 7.66659 6.99999 7.66659C4.97495 7.66659 3.33333 6.02496 3.33333 3.99992ZM6.99999 9.66659C5.1073 9.66659 3.42032 10.5794 2.34256 12.0058C2.27662 12.0931 2.22616 12.1599 2.18419 12.2187C2.15233 12.2633 2.13058 12.296 2.11544 12.3209C2.21452 12.3322 2.3557 12.3333 2.61815 12.3333H11.3818C11.6443 12.3333 11.7855 12.3322 11.8845 12.3209C11.8694 12.296 11.8477 12.2633 11.8158 12.2187C11.7738 12.1599 11.7234 12.0931 11.6574 12.0058C10.5797 10.5794 8.89268 9.66659 6.99999 9.66659ZM1.27876 11.202C2.59407 9.46125 4.66591 8.33325 6.99999 8.33325C9.33407 8.33325 11.4059 9.46125 12.7212 11.202C12.7272 11.2099 12.7331 11.2178 12.7391 11.2257C12.8522 11.3752 12.9735 11.5356 13.0602 11.6903C13.165 11.8776 13.2428 12.0942 13.238 12.3576C13.2341 12.5694 13.1699 12.7676 13.092 12.9242C13.0141 13.0807 12.8946 13.2514 12.728 13.3822C12.5058 13.5566 12.2638 13.6183 12.0489 13.6441C11.8603 13.6667 11.6369 13.6666 11.4122 13.6666C11.4021 13.6666 11.392 13.6666 11.3818 13.6666H2.61815C2.60802 13.6666 2.59789 13.6666 2.58777 13.6666C2.3631 13.6666 2.13965 13.6667 1.95109 13.6441C1.73616 13.6183 1.49422 13.5566 1.27201 13.3822C1.10538 13.2514 0.985893 13.0807 0.907976 12.9242C0.830059 12.7676 0.765895 12.5694 0.762023 12.3576C0.757205 12.0942 0.834944 11.8776 0.939834 11.6903C1.02649 11.5356 1.14775 11.3752 1.26084 11.2257C1.26684 11.2178 1.27281 11.2099 1.27876 11.202Z" fill="#F5F8FB"/>
</svg>
