<svg width="16" height="17" viewBox="0 0 16 17" fill="none" xmlns="http://www.w3.org/2000/svg">
<path fill-rule="evenodd" clip-rule="evenodd" d="M3.52925 3.77186C3.7896 3.51151 4.21171 3.51151 4.47206 3.77186L8.00065 7.30046L11.5292 3.77186C11.7896 3.51151 12.2117 3.51151 12.4721 3.77186C12.7324 4.03221 12.7324 4.45432 12.4721 4.71467L8.94346 8.24327L12.4721 11.7719C12.7324 12.0322 12.7324 12.4543 12.4721 12.7147C12.2117 12.975 11.7896 12.975 11.5292 12.7147L8.00065 9.18607L4.47206 12.7147C4.21171 12.975 3.7896 12.975 3.52925 12.7147C3.2689 12.4543 3.2689 12.0322 3.52925 11.7719L7.05784 8.24327L3.52925 4.71467C3.2689 4.45432 3.2689 4.03221 3.52925 3.77186Z" fill="#F5F8FB"/>
</svg>
