<svg width="20" height="20" viewBox="0 0 20 20" fill="none" xmlns="http://www.w3.org/2000/svg">
<path fill-rule="evenodd" clip-rule="evenodd" d="M6.19471 0.824672C7.17904 0.779357 7.49289 0.769287 10.0003 0.769287C12.5077 0.769287 12.8216 0.780196 13.8051 0.824672C14.7886 0.869147 15.4599 1.02607 16.0473 1.25348C16.6624 1.48593 17.2204 1.84929 17.682 2.31922C18.1519 2.77992 18.5144 3.33712 18.746 3.95306C18.9743 4.54048 19.1304 5.21181 19.1757 6.19362C19.221 7.17964 19.2311 7.49348 19.2311 10.0001C19.2311 12.5075 19.2202 12.8213 19.1757 13.8057C19.1312 14.7875 18.9743 15.4588 18.746 16.0462C18.5144 16.6622 18.1513 17.2204 17.682 17.6817C17.2204 18.1517 16.6624 18.5142 16.0473 18.7458C15.4599 18.974 14.7886 19.1301 13.8067 19.1754C12.8216 19.2208 12.5077 19.2308 10.0003 19.2308C7.49289 19.2308 7.17904 19.2199 6.19471 19.1754C5.21289 19.131 4.54156 18.974 3.95415 18.7458C3.33814 18.5142 2.78001 18.151 2.31862 17.6817C1.84901 17.2208 1.4856 16.6629 1.25373 16.0471C1.02631 15.4596 0.870231 14.7883 0.824916 13.8065C0.779601 12.8205 0.769531 12.5066 0.769531 10.0001C0.769531 7.49265 0.78044 7.1788 0.824916 6.1953C0.869391 5.21181 1.02631 4.54048 1.25373 3.95306C1.48594 3.33719 1.84963 2.77934 2.31946 2.31838C2.78019 1.84887 3.33776 1.48546 3.95331 1.25348C4.54072 1.02607 5.21205 0.869986 6.19387 0.824672H6.19471ZM13.7304 2.48621C12.7569 2.44173 12.4649 2.4325 10.0003 2.4325C7.53569 2.4325 7.24366 2.44173 6.27023 2.48621C5.36981 2.52733 4.88142 2.67754 4.55583 2.80425C4.12534 2.97208 3.81736 3.17097 3.49429 3.49404C3.18803 3.79199 2.95234 4.1547 2.8045 4.55558C2.67778 4.88118 2.52757 5.36957 2.48645 6.26999C2.44198 7.24341 2.43275 7.53544 2.43275 10.0001C2.43275 12.4647 2.44198 12.7567 2.48645 13.7301C2.52757 14.6305 2.67778 15.1189 2.8045 15.4445C2.95219 15.8448 3.18799 16.2082 3.49429 16.5061C3.79219 16.8124 4.15555 17.0482 4.55583 17.1959C4.88142 17.3226 5.36981 17.4728 6.27023 17.5139C7.24366 17.5584 7.53485 17.5676 10.0003 17.5676C12.4658 17.5676 12.7569 17.5584 13.7304 17.5139C14.6308 17.4728 15.1192 17.3226 15.4448 17.1959C15.8753 17.028 16.1832 16.8292 16.5063 16.5061C16.8126 16.2082 17.0484 15.8448 17.1961 15.4445C17.3228 15.1189 17.473 14.6305 17.5142 13.7301C17.5586 12.7567 17.5679 12.4647 17.5679 10.0001C17.5679 7.53544 17.5586 7.24341 17.5142 6.26999C17.473 5.36957 17.3228 4.88118 17.1961 4.55558C17.0283 4.12509 16.8294 3.81712 16.5063 3.49404C16.2084 3.18781 15.8456 2.95212 15.4448 2.80425C15.1192 2.67754 14.6308 2.52733 13.7304 2.48621ZM8.82128 12.8457C9.47974 13.1197 10.2129 13.1567 10.8956 12.9503C11.5783 12.7439 12.1682 12.3068 12.5645 11.7138C12.9607 11.1208 13.1388 10.4086 13.0683 9.69889C12.9978 8.98915 12.6831 8.32591 12.1779 7.82243C11.8559 7.5006 11.4665 7.25417 11.0378 7.10088C10.6091 6.94759 10.1517 6.89127 9.69862 6.93596C9.24553 6.98065 8.80798 7.12524 8.41748 7.35933C8.02698 7.59341 7.69323 7.91117 7.44028 8.28972C7.18732 8.66827 7.02144 9.0982 6.95458 9.54856C6.88772 9.99891 6.92155 10.4585 7.05362 10.8942C7.1857 11.3299 7.41273 11.7309 7.71839 12.0684C8.02404 12.4058 8.40071 12.6713 8.82128 12.8457ZM6.64534 6.64509C7.08592 6.20451 7.60896 5.85502 8.18461 5.61658C8.76025 5.37814 9.37723 5.25542 10.0003 5.25542C10.6234 5.25542 11.2404 5.37814 11.816 5.61658C12.3916 5.85502 12.9147 6.20451 13.3553 6.64509C13.7958 7.08567 14.1453 7.60872 14.3838 8.18436C14.6222 8.76001 14.7449 9.37698 14.7449 10.0001C14.7449 10.6231 14.6222 11.2401 14.3838 11.8158C14.1453 12.3914 13.7958 12.9144 13.3553 13.355C12.4655 14.2448 11.2587 14.7447 10.0003 14.7447C8.74195 14.7447 7.53513 14.2448 6.64534 13.355C5.75554 12.4652 5.25566 11.2584 5.25566 10.0001C5.25566 8.7417 5.75554 7.53488 6.64534 6.64509ZM15.7972 5.96202C15.9064 5.85902 15.9938 5.73517 16.0543 5.5978C16.1147 5.46042 16.147 5.31231 16.1492 5.16224C16.1514 5.01216 16.1234 4.86317 16.067 4.72409C16.0106 4.58501 15.9268 4.45867 15.8207 4.35254C15.7146 4.24641 15.5882 4.16265 15.4491 4.10623C15.3101 4.0498 15.1611 4.02185 15.011 4.02404C14.8609 4.02623 14.7128 4.05851 14.5754 4.11896C14.4381 4.17942 14.3142 4.26682 14.2112 4.376C14.0109 4.58833 13.9013 4.87037 13.9055 5.16224C13.9098 5.4541 14.0276 5.73282 14.234 5.93923C14.4404 6.14563 14.7191 6.26347 15.011 6.26772C15.3029 6.27198 15.5849 6.16231 15.7972 5.96202Z" fill="#F5F8FB"/>
</svg>
